<svg xmlns="http://www.w3.org/2000/svg" xmlns:xlink="http://www.w3.org/1999/xlink" width="193" height="45"><defs><filter><feColorMatrix in="SourceGraphic" values="0 0 0 0 0.521569 0 0 0 0 0.772549 0 0 0 0 0.725490 0 0 0 1.000000 0"/></filter><path id="a" d="M0 0h193v45H0z"/></defs><g fill="none" fill-rule="evenodd"><g transform="translate(-50 -59)"><g transform="translate(0 40)"><g transform="translate(50 19)"><g><mask id="b" fill="#fff"><use xlink:href="#a"/></mask><path fill="#85C5B9" d="M167.822 26.688c-2.046 0-7.897-5.333-7.897-8.354 0-1.44.96-1.853 1.757-1.853.908 0 3.047 1.273 3.047 1.273s.32 5.711 2.485 5.711c.769 0 2.212-1.296 2.212-2.338 0-1.717-1.303-3.067-2.801-4.37.071-.657.495-1.834 1.19-2.736.63-.815 1.508-1.463 2.602-1.48 1.078-.019 1.794 1.163 1.819 3.052.066 4.545-2.56 11.066-4.414 11.095zm.321-5.502c0 .183-.063.321-.223.321-1.313 0-1.454-2.648-1.454-2.648 1.033.584 1.677 1.399 1.677 2.327zm2.553-11.965c-1.76.024-3.525 1.6-4.63 3.54-.508.903-.872 1.879-1.03 2.815-1.677-1.071-3.49-1.73-4.677-1.73-3.237 0-3.791 2.523-3.791 3.908 0 5.123 9.38 10.81 12.244 10.81 2.31-.035 6.63-7.284 6.541-13.321-.034-2.475-1.366-6.075-4.657-6.022zm13.036 19.502c.843 0 1.035 1.027 1.035 1.792 0 .326-.147.703-.527.835-1.145.416-2.809 1.213-2.809 2.337 0 .02.014 6.207.014 6.703 0 .494-.869.576-.869.576-1.733 0-2.304-.62-2.304-2.294v-8.365c0-1.224 1.117-1.764 1.925-1.778.583-.005.926.266.926.8 0 0 .01.368.01.962 1.26-1.352 2.119-1.568 2.6-1.568zm-53.766-5.912c1.099 0 2.392.754 2.392 3.111 0 2.663-1.61 4.544-4.923 5.258a26.956 26.956 0 01-.22-3.317c0-3.418.999-5.052 2.75-5.052zm-6.085 4.771c0 4.428.733 10.547 1.025 12.312.265 1.595.556 2.466 2.3 2.466.976 0 1.384-.114 1.384-.747l-.903-7.378c1.196-.2 7.853-1.113 7.853-8.924 0-2.31-1.225-5.77-5.337-5.77-3.253 0-6.322 2.063-6.322 8.041zm37.735 5.969c0-1.493.303-2.34 1.535-2.446.992-.08 1.903.644 1.903 1.855 0 2.65-1.131 4.348-3.438 4.507V33.55zm1.336-5.37c-2.464.013-4.082 1.285-4.082 5.416v9.543c0 1.154.278 1.86 1.65 1.86.768 0 1.084-.093 1.084-.59V40.2c.942-.154 6.169-.902 6.169-7.416 0-1.582-.922-4.604-4.821-4.604zm-26.926 10.132c-.677 0-.896-.583-.896-1.199 0-1.904 2.395-2.337 3.41-2.337l.078.001c0 2.821-1.717 3.535-2.592 3.535zm1.66-9.904c-1.769 0-1.967.925-1.993 1.39-.028.468.29 1.295.867 1.256.078-.004.316-.011.35-.011.842-.003 1.75.193 1.74 1.086 0 .15-.013.49-.013.49s-6.687-.147-6.687 4.546c0 1.776 1.271 3.695 3.344 3.695 1.39 0 2.755-1.006 3.299-2.362-.082.196-.11.594-.11.759 0 1.43.94 1.695 2.299 1.695.533 0 .64-.311.64-.932v-7.426c-.104-3.53-2.178-4.186-3.736-4.186zm8.224 12.164c0 .468-.21.681-.835.666-1.68-.046-2.432-1.388-2.432-2.883V30.31c0-1.26 1.247-1.862 2.005-1.873.67-.002.868.461.868 1.356v.645c.803-1.074 2.024-1.426 2.776-1.426 1.714 0 2.7.979 2.958 1.599.978-1.311 1.947-1.599 2.914-1.599 3.486 0 3.576 3.328 3.576 4.213v6.926c0 .558-.312.66-1.08.66-1.765 0-2.185-1.136-2.185-2.776l-.003-4.389c0-.784-.225-1.516-1.075-1.516-.83 0-1.61.391-1.61 1.617v5.688c0 .645-.558.886-1.053.886-1.86 0-2.117-1.48-2.117-2.412v-4.2c0-1.06-.348-1.58-1.19-1.58-.908 0-1.531.709-1.531 1.733l.014 6.711zm42.759 1.21c-2.508 0-4.715-1.78-4.715-3.046 0-.873.62-1.745 1.164-1.745.814 0 1.613 1.999 3.358 1.999.563 0 1.156-.126 1.156-.871 0-1.535-4.37-2.691-4.243-6.557.09-2.596 2.184-3.311 3.639-3.311 1.717 0 3.972 1.361 3.972 3.548 0 .668-1.058.99-1.671.99-1.144 0-.737-1.855-2.219-1.855-.619 0-.864.471-.864.87 0 1.72 4.41 3.152 4.41 6.515 0 2.206-1.903 3.463-3.987 3.463zM172.98 31.005c-1.276.184-1.468 2.178-1.473 2.758l2.863-1.006c-.024-.44-.29-1.752-1.39-1.752zm-4.415 4.698c0-6.751 3.672-7.299 4.532-7.299 2.756 0 3.993 2.767 3.993 4.676 0 .804-.202 1.19-1.414 1.698l-4.1 1.49c0 1.344.496 1.527 1.106 1.527 1.408 0 2.77-1.846 3.557-1.846.423 0 .853.72.853 1.165 0 1.526-2.424 3.423-4.855 3.423-2.083 0-3.672-1.805-3.672-4.834zm-59.556 7.613c-.3-.102-.633-.358-.633-.853 0-.512.383-.852.815-.852a1 1 0 01.367.068c.232.068.416.12.698.12.6 0 .916-.257 1.25-.955l.065-.188-3.261-7.468a1.393 1.393 0 01-.118-.495.98.98 0 011-1.005c.515 0 .798.307.982.784l2.363 5.985 2.198-5.985c.166-.426.448-.784.965-.784.532 0 .966.426.966.971 0 .171-.05.393-.084.495l-3.212 7.895c-.75 1.84-1.549 2.523-2.963 2.523-.567 0-.982-.086-1.398-.256zm-4.245-7.008v-.034c0-1.74-1.148-2.881-2.514-2.881-1.365 0-2.562 1.16-2.562 2.881v.034c0 1.722 1.197 2.881 2.562 2.881 1.382 0 2.514-1.108 2.514-2.881zm-7.041-7.025c0-.579.432-1.023.999-1.023.565 0 1.015.444 1.015 1.023v4.007c.649-.937 1.564-1.688 2.996-1.688 2.065 0 4.078 1.671 4.078 4.672v.034c0 2.984-1.998 4.672-4.078 4.672-1.465 0-2.38-.75-2.996-1.586v.46c0 .563-.45 1.024-1.015 1.024-.55 0-1-.46-1-1.023V29.283zm-10.766-16.68v.535c0 1.053-.862 1.848-2.006 1.848-1.12 0-1.965-.795-1.965-1.848v-.534c0-1.072.826-1.85 1.965-1.85 1.181 0 2.006.76 2.006 1.85zm-.28 8.055v18.453c0 1.007-.725 1.766-1.686 1.766-.967 0-1.725-.776-1.725-1.766V20.658c0-.958.772-1.766 1.685-1.766.967 0 1.725.775 1.725 1.766zm-9.67 6.699V39.11c0 .99-.74 1.766-1.685 1.766-.967 0-1.725-.776-1.725-1.766V28.096c0-3.97-1.901-6.246-5.216-6.246-3.312 0-5.537 2.576-5.537 6.411v10.85c0 .99-.757 1.766-1.725 1.766-.945 0-1.684-.776-1.684-1.766V28.014c0-3.86-1.935-6.164-5.177-6.164-3.254 0-5.617 2.748-5.617 6.535V39.11c0 1.007-.724 1.766-1.685 1.766-.967 0-1.725-.776-1.725-1.766V20.658c0-.958.772-1.766 1.685-1.766.967 0 1.725.775 1.725 1.766v1.65c1.301-1.878 3.134-3.663 6.54-3.663 2.98 0 5.34 1.442 6.68 4.07 1.819-2.738 4.203-4.07 7.282-4.07 4.851 0 7.864 3.338 7.864 8.712zm-37.995-6.699v18.453c0 .99-.74 1.766-1.684 1.766-.945 0-1.685-.776-1.685-1.766v-1.753c-1.707 2.533-3.982 3.766-6.941 3.766-4.924 0-8.105-3.404-8.105-8.672V20.658c0-1.007.724-1.766 1.684-1.766.952 0 1.725.792 1.725 1.766v11.014c0 3.912 2.085 6.247 5.578 6.247 3.567 0 6.059-2.671 6.059-6.494V20.658c0-1.007.724-1.766 1.685-1.766.944 0 1.684.775 1.684 1.766zM5.806 14.195c-.34-7.25.452-8.98 1.075-9.651.594-.638 1.53-.636 2.127.005.636.684 1.442 2.426 1.104 9.646-.127 2.705-.652 6.767-1.54 9.744l-.612 2.057-.614-2.057c-.887-2.977-1.413-7.038-1.54-9.744zM.515 40.304a1.666 1.666 0 002.399-.035c1.6-1.687 3.113-3.744 4.495-6.114l.55-.944.55.944c1.382 2.369 2.894 4.426 4.495 6.113.632.666 1.75.683 2.4.036a1.77 1.77 0 00.035-2.457l-.194-.205c-2.006-2.112-4.082-4.297-5.48-7.43l-.115-.256.102-.263c2.186-5.566 3.553-11.202 3.75-15.46.204-4.41-.07-10.221-2.524-12.855C10.14.476 9.095 0 7.96 0 6.822 0 5.779.476 4.94 1.378 2.486 4.013 2.213 9.822 2.417 14.232c.196 4.259 1.563 9.894 3.748 15.461l.104.263-.115.256c-1.399 3.132-3.473 5.316-5.478 7.429l-.195.206A1.745 1.745 0 000 39.082c.006.465.188.898.514 1.222z" mask="url(#b)"/></g></g></g></g></g></svg>