<?xml version="1.0" encoding="UTF-8"?>
<svg width="18px" height="18px" viewBox="0 0 18 18" version="1.1" xmlns="http://www.w3.org/2000/svg" xmlns:xlink="http://www.w3.org/1999/xlink">
    <title>10 copy</title>
    <defs>
        <path d="M13.9762808,10.3648 C13.6346808,10.7112 13.4794808,11.2104 13.5594808,11.7 L14.0754808,14.8328 C14.2362808,15.808 13.4922808,16.6 12.6482808,16.6 C12.4258808,16.6 12.1962808,16.5448 11.9738808,16.4232 L9.27388081,14.944 C9.06268081,14.8288 8.83148081,14.7712 8.59948081,14.7712 C8.36828081,14.7712 8.13708081,14.8288 7.92588081,14.944 L5.22588081,16.4232 C5.00348081,16.5448 4.77388081,16.6 4.55148081,16.6 C3.70748081,16.6 2.96348081,15.808 3.12428081,14.8328 L3.64028081,11.7 C3.72028081,11.2104 3.56508081,10.7112 3.22348081,10.3648 L1.03868081,8.1464 C0.179480806,7.2736 0.653880806,5.7528 1.84108081,5.5728 L4.86028081,5.116 C5.33228081,5.0448 5.74028081,4.736 5.95068081,4.2904 L7.30108081,1.4408 C7.56668081,0.88 8.08348081,0.6 8.59948081,0.6 C9.11628081,0.6 9.63308081,0.88 9.89868081,1.4408 L11.2490808,4.2904 C11.4594808,4.736 11.8674808,5.0448 12.3394808,5.116 L15.3586808,5.5728 C16.5458808,5.7528 17.0202808,7.2736 16.1610808,8.1464 L13.9762808,10.3648 Z" id="path-1"></path>
        <filter id="filter-3">
            <feColorMatrix in="SourceGraphic" type="matrix" values="0 0 0 0 0.000000 0 0 0 0 0.698039 0 0 0 0 0.662745 0 0 0 1.000000 0"></feColorMatrix>
        </filter>
    </defs>
    <g id="Page-1" stroke="none" stroke-width="1" fill="none" fill-rule="evenodd">
        <g id="Ratings-&amp;-Reviews-Copy" transform="translate(-681.000000, -435.000000)">
            <g id="10-copy" transform="translate(681.400000, 435.100000)">
                <mask id="mask-2" fill="white">
                    <use xlink:href="#path-1"></use>
                </mask>
                <use id="Mask-Copy-4" fill="#ECECEC" xlink:href="#path-1"></use>
            </g>
        </g>
    </g>
</svg>